#!OML:ASF E:\motion texture\Top Level 1\Subject 1\Session 1\male.ASF
:FULLY-SPECIFIED
:DEGREES
661
root -42.8687 18.0025 3.73533 484.522 -79.9381 -479.462
lowerback -1.57671 -0.2698 5.657
upperback -5.16637 -0.402729 6.17588
thorax -4.47112 -0.424611 3.27739
lowerneck -8.6134 -0.295226 -4.42545
upperneck -9.56755 0.0469657 11.1363
head -1.59574 -0.139653 4.52805
rclavicle 1.799e-014 -7.4743e-014
rhumerus 66.2864 -0.228839 -57.2479
rradius 78.0222
rwrist 31.0534
rhand -38.4272 -26.4274
rfingers 7.12502
rthumb -11.4513 -56.0947
lclavicle 1.799e-014 -7.4743e-014
lhumerus 74.4242 -19.733 66.7331
lradius 71.1011
lwrist 40.711
lhand -8.90535 51.3225
lfingers 7.12502
lthumb 17.0375 80.5953
rfemur -2.92165 4.34358 31.448
rtibia 24.6965
rfoot -12.9624 -8.23338
rtoes -1.6642
lfemur -28.6751 -0.888269 -6.26354
ltibia 19.1821
lfoot -6.57284 9.64183
ltoes -16.6025
662
root -43.017 17.983 3.74083 485.988 -79.772 -480.965
lowerback -1.61494 -0.310941 5.54995
upperback -5.13754 -0.463945 6.15925
thorax -4.41648 -0.449682 3.31908
lowerneck -8.67275 -0.305021 -4.44394
upperneck -9.00002 0.0148637 11.1721
head -1.3925 -0.132459 4.53518
rclavicle -1.64991e-014 3.33958e-014
rhumerus 64.5184 -0.231086 -58.0654
rradius 79.5902
rwrist 31.5414
rhand -39.2807 -26.9503
rfingers 7.12502
rthumb -12.2743 -56.5701
lclavicle -1.64991e-014 3.33958e-014
lhumerus 74.0377 -20.73 65.8919
lradius 72.4488
lwrist 40.7777
lhand -8.72511 51.3855
lfingers 7.12502
lthumb 17.211 80.6433
rfemur -2.72481 4.29892 31.3498
rtibia 25.3266
rfoot -13.0575 -7.96135
rtoes -2.38219
lfemur -28.5875 -1.11433 -6.06557
ltibia 18.4631
lfoot -6.3919 9.78582
ltoes -16.5708
663
root -43.1659 17.9633 3.74669 487.431 -79.6091 -482.459
lowerback -1.65247 -0.354533 5.43038
upperback -5.10146 -0.528347 6.13688
thorax -4.35426 -0.47561 3.36147
lowerneck -8.74722 -0.317707 -4.46962
upperneck -8.39446 -0.0232022 11.2013
head -1.17428 -0.126238 4.54183
rclavicle 1.16289e-014 -7.31528e-014
rhumerus 62.6116 -0.247678 -58.9102
rradius 81.2024
rwrist 32.0177
rhand -40.1153 -27.5123
rfingers 7.12502
rthumb -13.079 -57.0823
lclavicle 1.16289e-014 -7.31528e-014
lhumerus 73.6309 -21.789 64.9652
lradius 73.813
lwrist 40.734
lhand -8.51595 51.3825
lfingers 7.12502
lthumb 17.4123 80.6226
rfemur -2.55333 4.24076 31.2249
rtibia 26.0118
rfoot -13.1073 -7.67227
rtoes -3.11027
lfemur -28.4825 -1.3368 -5.88942
ltibia 17.847
lfoot -6.20018 9.90687
ltoes -16.5188
664
root -43.3154 17.9433 3.75282 488.863 -79.4494 -483.953
lowerback -1.68708 -0.399731 5.29689
upperback -5.05863 -0.594525 6.10942
thorax -4.28623 -0.501688 3.40606
lowerneck -8.83738 -0.332887 -4.50284
upperneck -7.75258 -0.0666306 11.2218
head -0.941619 -0.120855 4.54773
rclavicle 3.24019e-014 -9.54166e-015
rhumerus 60.5641 -0.284896 -59.7806
rradius 82.8512
rwrist 32.4776
rhand -40.9228 -28.1069
rfingers 7.12502
rthumb -13.8572 -57.6253
lclavicle 3.24019e-014 -9.54166e-015
lhumerus 73.2098 -22.9108 63.9547
lradius 75.1795
lwrist 40.5685
lhand -8.28174 51.3122
lfingers 7.12502
lthumb 17.6377 80.5322
rfemur -2.41048 4.17485 31.0729
rtibia 26.7546
rfoot -13.1031 -7.36775
rtoes -3.80787
lfemur -28.3617 -1.55007 -5.73861
ltibia 17.3341
lfoot -5.99862 10.0029
ltoes -16.4384
665
root -43.4654 17.9233 3.75931 490.285 -79.2954 -485.451
lowerback -1.71899 -0.446639 5.14937
upperback -5.00896 -0.662596 6.07637
thorax -4.21213 -0.527999 3.45239
lowerneck -8.94538 -0.349765 -4.5456
upperneck -7.07371 -0.114146 11.2347
head -0.693996 -0.115737 4.55394
rclavicle -3.43897e-014 9.93923e-014
rhumerus 58.3735 -0.348738 -60.6753
rradius 84.5343
rwrist 32.9222
rhand -41.6977 -28.7487
rfingers 7.12502
rthumb -14.6039 -58.2145
lclavicle -3.43897e-014 9.93923e-014
lhumerus 72.7731 -24.0955 62.8617
lradius 76.5424
lwrist 40.2733
lhand -8.02363 51.1647
lfingers 7.12502
lthumb 17.8861 80.3622
rfemur -2.29828 4.09932 30.8904
rtibia 27.5548
rfoot -13.0382 -7.04776
rtoes -4.46636
lfemur -28.2269 -1.75095 -5.62075
ltibia 16.9245
lfoot -5.78953 10.0682
ltoes -16.3328
